<?xml version="1.0" encoding="UTF-8" standalone="no"?>
<!-- Created with Inkscape (http://www.inkscape.org/) -->

<svg
   width="406.19998mm"
   height="79.407486mm"
   viewBox="0 0 406.19998 79.407486"
   version="1.1"
   id="svg1741"
   inkscape:version="1.2 (dc2aedaf03, 2022-05-15)"
   sodipodi:docname="logo_white.svg"
   xmlns:inkscape="http://www.inkscape.org/namespaces/inkscape"
   xmlns:sodipodi="http://sodipodi.sourceforge.net/DTD/sodipodi-0.dtd"
   xmlns="http://www.w3.org/2000/svg"
   xmlns:svg="http://www.w3.org/2000/svg">
  <sodipodi:namedview
     id="namedview1743"
     pagecolor="#ffffff"
     bordercolor="#999999"
     borderopacity="1"
     inkscape:showpageshadow="0"
     inkscape:pageopacity="0"
     inkscape:pagecheckerboard="0"
     inkscape:deskcolor="#d1d1d1"
     inkscape:document-units="mm"
     showgrid="false"
     inkscape:zoom="0.2102413"
     inkscape:cx="758.65208"
     inkscape:cy="458.9964"
     inkscape:current-layer="layer1" />
  <defs
     id="defs1738" />
  <g
     inkscape:label="Layer 1"
     inkscape:groupmode="layer"
     id="layer1"
     transform="translate(389.35424,-28.253876)">
    <g
       id="g23493"
       inkscape:export-filename="assets\main\logo.png"
       inkscape:export-xdpi="150"
       inkscape:export-ydpi="150"
       transform="translate(-1640.5214,1158.2462)"
       style="fill:#ffffff">
      <g
         id="g16994"
         transform="matrix(3.3289637,0,0,3.3289637,-2409.6866,982.31412)"
         style="fill:#ffffff;fill-opacity:1">
        <path
           id="path16984"
           style="font-variation-settings:normal;fill:#ffffff;fill-opacity:1;stroke:none;stroke-width:0.0867656px;stroke-linecap:butt;stroke-linejoin:miter;stroke-miterlimit:4;stroke-dasharray:none;stroke-dashoffset:0;stroke-opacity:1;stop-color:#000000"
           d="m 1102.226,-633.92824 c -0.8118,0.18056 -1.5589,0.85749 -1.9381,1.46786 -0.2481,0.4929 -0.464,0.97996 -0.5763,1.52692 -0.05,0.77853 0.01,1.46083 0.602,1.91216 0.5067,0.19758 0.8905,0.28289 1.3804,0.36159 0.073,-0.73037 0.2489,-1.52197 0.5707,-2.11056 0.1932,-0.39163 0.4478,-0.68673 0.7436,-0.90438 -0.2609,0.28901 -0.3161,0.60945 -0.2883,0.96332 l 0.4958,-0.50109 c -0.049,0.38913 -0.083,0.50474 0.121,0.77525 l 0.3394,-0.93765 c 0.028,0.15942 0.082,0.22367 0.1388,0.27531 0.7702,-1.25318 2.0289,-1.0912 3.1561,-0.75036 1.2702,0.60281 1.6551,0.46679 2.1843,1.86815 l 0.1865,0.75424 c -0.2623,-0.0602 -0.5223,-0.13166 -0.787,-0.18019 -0.2304,-0.0423 -0.4575,0.018 -0.6866,0.0517 l -0.2274,-0.23781 c -0.2872,-0.30037 -0.7336,-0.26799 -1.1457,-0.23959 l -0.7291,0.0832 c 0.1854,-0.33208 0.6034,-0.42145 0.8971,-0.5297 0.3365,-0.109 0.6764,-0.0932 1.0238,-0.0741 l 0.3081,0.0725 c -0.2823,-0.24167 -0.6055,-0.39728 -0.9357,-0.55872 -0.6661,-0.24327 -1.2236,0.23635 -1.7435,0.59105 -0.3069,0.19655 -0.4006,0.40659 -0.5243,0.72954 l -0.025,0.032 -1.529,0.42672 c -0.044,-0.25426 -0.352,-0.37329 -0.5566,-0.39202 -0.3431,-0.0276 -0.9876,0.44135 -0.9192,0.72399 0.2724,-0.093 0.9417,-0.24585 1.2162,-0.18061 l -0.1154,0.0393 -0.4332,0.1475 c -0.249,0.07 -0.4696,0.1315 -0.6632,0.24901 -0.1869,0.11333 -0.3546,0.26015 -0.4986,0.42426 -0.1704,0.19441 -0.2098,0.43663 -0.2614,0.68397 l -0.2274,0.0657 -0.011,0.0359 0.021,0.10597 0.035,0.11215 0.1864,-0.0125 0.1405,0.38793 c 0.251,0.58631 0.8342,0.9948 1.5096,0.87217 0.3817,-0.12029 0.7888,-0.22389 0.9004,-0.63615 0.1344,-0.4851 0.307,-1.08355 0.2647,-1.51436 -0.025,-0.16045 -0.085,-0.27143 0.053,-0.38234 0.1535,-0.17355 0.3509,-0.12569 0.5413,-0.11602 l 0.03,0.0227 c 0.014,0.16758 0.045,0.31249 0.128,0.46406 l 0.2224,0.33405 c 0.3231,0.40402 0.611,0.74257 1.1291,0.84595 0.3173,0.0456 0.7207,-0.0647 1.0604,-0.16706 0.9996,-0.46074 1.3024,-0.97721 0.9749,-2.09278 l 0.5503,-0.12581 0.8769,0.18563 c 0.092,0.63957 -0.01,1.28534 -0.05,1.92607 -0.2716,1.65299 -0.1962,2.81709 -1.2575,3.14996 -0.3182,-1.11291 -0.1355,-1.69584 -1.137,-2.06139 -0.7013,-0.13898 -1.6209,-0.40484 -1.9605,-0.082 l -0.3487,0.33143 c -0.2808,-0.0597 -0.6663,-0.17397 -0.9167,-0.0418 -0.2605,0.15195 -0.5278,0.73496 -0.5278,0.73496 -0.3325,0.94346 -0.2939,1.49813 0.089,2.38337 0.5622,1.29936 0.4819,1.28014 1.7444,1.62111 1.4958,0.40399 2.3436,0.0628 3.6877,-0.67315 1.5479,-0.84757 1.0591,-1.18333 1.281,-2.95366 0.201,-1.28138 0.042,-2.31211 -0.08,-3.46436 l 0.1109,-0.75055 c 0.2948,-0.5235 0.2536,-1.01827 0.1311,-1.5281 -0.3987,-1.77649 -0.9798,-2.70016 -1.933,-3.35501 -0.4948,-0.35521 -1.0349,-0.52786 -1.6067,-0.70456 -0.8931,-0.21152 -1.4699,0.0494 -2.277,0.41866 l -0.2968,0.1807 c -0.6161,-0.10281 -1.3032,-0.18209 -1.818,-0.0794 z"
           sodipodi:nodetypes="sccccccccccccccscccccccccccccccccssccccccccccccccccccccccccccccssccccccccss" />
        <text
           xml:space="preserve"
           style="font-size:10.5833px;line-height:1.25;font-family:sans-serif;text-align:center;letter-spacing:0.433917px;text-anchor:middle;fill:#ffffff;fill-opacity:1;stroke-width:0.264583"
           x="1163.6915"
           y="-624.12781"
           id="text16988"><tspan
             sodipodi:role="line"
             id="tspan16986"
             style="font-style:normal;font-variant:normal;font-weight:bold;font-stretch:normal;font-size:10.5833px;font-family:Poppins;-inkscape-font-specification:'Poppins, Bold';font-variant-ligatures:normal;font-variant-caps:normal;font-variant-numeric:normal;font-variant-east-asian:normal;fill:#ffffff;fill-opacity:1;stroke-width:0.264583"
             x="1163.9084"
             y="-624.12781">KBondek_design</tspan></text>
        <text
           xml:space="preserve"
           style="font-size:5.19138px;line-height:1.25;font-family:sans-serif;text-align:center;text-anchor:middle;fill:#ffffff;fill-opacity:1;stroke-width:0.129785"
           x="1218.1174"
           y="-628.35236"
           id="text16992"><tspan
             sodipodi:role="line"
             id="tspan16990"
             style="font-style:normal;font-variant:normal;font-weight:bold;font-stretch:normal;font-size:5.19138px;font-family:Poppins;-inkscape-font-specification:'Poppins, Bold';font-variant-ligatures:normal;font-variant-caps:normal;font-variant-numeric:normal;font-variant-east-asian:normal;fill:#ffffff;fill-opacity:1;stroke-width:0.129785"
             x="1218.1174"
             y="-628.35236">TM</tspan></text>
      </g>
      <text
         xml:space="preserve"
         style="font-size:19.8527px;line-height:1.25;font-family:sans-serif;text-align:center;letter-spacing:0.813964px;text-anchor:middle;stroke-width:0.264581;fill:#ffffff"
         x="1454.3663"
         y="-1055.9451"
         id="text22119"><tspan
           sodipodi:role="line"
           id="tspan22117"
           style="font-style:normal;font-variant:normal;font-weight:normal;font-stretch:normal;font-size:19.8527px;font-family:Poppins;-inkscape-font-specification:'Poppins, Bold';font-variant-ligatures:normal;font-variant-caps:normal;font-variant-numeric:normal;font-variant-east-asian:normal;stroke-width:0.264581;fill:#ffffff"
           x="1454.7733"
           y="-1055.9451">#DailyLogoChallenge</tspan></text>
    </g>
  </g>
</svg>
